<svg width="37" height="36" viewBox="0 0 37 36" fill="none" xmlns="http://www.w3.org/2000/svg">
    <path d="M18.5 2C9.3873 2 2 9.11757 2 17.8975C2 26.6774 9.3873 33.7951 18.5 33.7951C27.6126 33.7951 35 26.6774 35 17.8975C35 9.11757 27.6126 2 18.5 2Z" stroke="black" stroke-width="3" stroke-linecap="round" stroke-linejoin="round"/>
    <path d="M5.74707 27.9856C5.74707 27.9856 9.42495 23.4617 18.4999 23.4617C27.5749 23.4617 31.2529 27.9856 31.2529 27.9856" stroke="black" stroke-width="3" stroke-linecap="round" stroke-linejoin="round"/>
    <path d="M18.4998 17.8975C21.2337 17.8975 23.4498 15.7623 23.4498 13.1283C23.4498 10.4943 21.2337 8.35901 18.4998 8.35901C15.7659 8.35901 13.5498 10.4943 13.5498 13.1283C13.5498 15.7623 15.7659 17.8975 18.4998 17.8975Z" stroke="black" stroke-width="3" stroke-linecap="round" stroke-linejoin="round"/>
</svg>
